<?xml version="1.0" encoding="utf-8"?>
<!-- Generator: Adobe Illustrator 19.0.0, SVG Export Plug-In . SVG Version: 6.00 Build 0)  -->
<svg version="1.1" id="Layer_1" xmlns="http://www.w3.org/2000/svg" xmlns:xlink="http://www.w3.org/1999/xlink" x="0px" y="0px"
	 viewBox="0 0 522.6 42.5" style="enable-background:new 0 0 522.6 42.5;" xml:space="preserve">
<style type="text/css">
	.st0{fill:#FFFFFF;}
	.st1{fill:#818080;}
</style>
<g id="XMLID_2319_">
	<path id="XMLID_2349_" class="st0" d="M39.4,8.1L34,13.3c-3.7-3.9-7.8-5.8-12.4-5.8c-3.9,0-7.2,1.3-9.8,4c-2.7,2.6-4,5.9-4,9.8
		c0,2.7,0.6,5.1,1.8,7.2c1.2,2.1,2.8,3.7,5,4.9c2.2,1.2,4.5,1.8,7.2,1.8c2.2,0,4.3-0.4,6.2-1.3c1.9-0.8,3.9-2.4,6.1-4.6l5.2,5.5
		c-3,2.9-5.8,4.9-8.5,6.1C28,42,25,42.5,21.6,42.5c-6.3,0-11.5-2-15.5-6c-4-4-6-9.1-6-15.3c0-4,0.9-7.6,2.7-10.8
		c1.8-3.1,4.5-5.7,7.9-7.6C14,1,17.7,0,21.7,0c3.4,0,6.6,0.7,9.7,2.1S37.1,5.5,39.4,8.1z"/>
	<path id="XMLID_2346_" class="st0" d="M65.1,0c5.8,0,10.7,2.1,14.8,6.2c4.1,4.1,6.2,9.2,6.2,15.2c0,5.9-2,10.9-6.1,15
		c-4.1,4.1-9,6.1-14.9,6.1c-6.1,0-11.2-2.1-15.2-6.3c-4-4.2-6.1-9.2-6.1-15c0-3.9,0.9-7.4,2.8-10.7c1.9-3.2,4.5-5.8,7.8-7.7
		C57.8,0.9,61.3,0,65.1,0z M65,7.5c-3.8,0-6.9,1.3-9.5,3.9c-2.6,2.6-3.8,5.9-3.8,9.9c0,4.5,1.6,8,4.8,10.6c2.5,2,5.4,3.1,8.6,3.1
		c3.7,0,6.8-1.3,9.4-4c2.6-2.6,3.9-5.9,3.9-9.8c0-3.9-1.3-7.1-3.9-9.8C71.9,8.9,68.8,7.5,65,7.5z"/>
	<path id="XMLID_2343_" class="st0" d="M93.9,1h8.2c4.5,0,7.7,0.4,9.6,1.2s3.4,2.1,4.6,4s1.7,4,1.7,6.6c0,2.7-0.6,4.9-1.9,6.7
		c-1.3,1.8-3.2,3.1-5.8,4.1l9.6,18h-8.5l-9.1-17.2h-0.7v17.2h-7.7V1z M101.6,16.8h2.4c2.5,0,4.2-0.3,5.1-1c0.9-0.6,1.4-1.7,1.4-3.2
		c0-0.9-0.2-1.7-0.7-2.3c-0.5-0.7-1.1-1.1-1.8-1.4c-0.8-0.3-2.2-0.4-4.2-0.4h-2.1V16.8z"/>
	<path id="XMLID_2341_" class="st0" d="M125.9,1h22.2v7.5h-14.5v7.3h14.5v7.4h-14.5v10.7h14.5v7.6h-22.2V1z"/>
	<path id="XMLID_2339_" class="st1" d="M209.9,8.5l-3.2,2.4c-1.8-2.3-3.9-4-6.4-5.2c-2.5-1.2-5.2-1.8-8.2-1.8c-3.2,0-6.2,0.8-9,2.3
		s-4.9,3.6-6.4,6.2c-1.5,2.6-2.3,5.6-2.3,8.8c0,4.9,1.7,9.1,5.1,12.4c3.4,3.3,7.7,5,12.9,5c5.7,0,10.5-2.2,14.3-6.7l3.2,2.4
		c-2,2.6-4.6,4.6-7.6,6c-3,1.4-6.4,2.1-10.2,2.1c-7.1,0-12.7-2.4-16.8-7.1c-3.4-4-5.2-8.8-5.2-14.4c0-5.9,2.1-10.9,6.3-15
		c4.2-4,9.4-6.1,15.7-6.1c3.8,0,7.2,0.7,10.3,2.2C205.5,3.7,208,5.8,209.9,8.5z"/>
	<path id="XMLID_2336_" class="st1" d="M237.4,0c6.2,0,11.3,2,15.5,6.1c4.1,4.1,6.2,9.1,6.2,15.1c0,5.9-2.1,11-6.2,15.1
		c-4.1,4.1-9.2,6.2-15.1,6.2c-6,0-11.1-2.1-15.3-6.2s-6.2-9.1-6.2-14.9c0-3.9,0.9-7.5,2.8-10.8c1.9-3.3,4.5-5.9,7.7-7.8
		S233.6,0,237.4,0z M237.6,3.9c-3,0-5.9,0.8-8.6,2.3c-2.7,1.6-4.8,3.7-6.3,6.3c-1.5,2.6-2.3,5.6-2.3,8.8c0,4.8,1.7,8.9,5,12.2
		c3.3,3.3,7.4,5,12.1,5c3.2,0,6.1-0.8,8.8-2.3c2.7-1.5,4.8-3.6,6.3-6.3s2.3-5.6,2.3-8.8c0-3.2-0.8-6.1-2.3-8.7s-3.6-4.7-6.4-6.2
		C243.6,4.7,240.7,3.9,237.6,3.9z"/>
	<path id="XMLID_2334_" class="st1" d="M267.6,41.5V1h0.9l27.1,31V1h4v40.5h-0.9l-26.8-30.7v30.7H267.6z"/>
	<path id="XMLID_2332_" class="st1" d="M305.1,34l3.5-2.1c2.4,4.5,5.2,6.7,8.4,6.7c1.4,0,2.6-0.3,3.8-1c1.2-0.6,2.1-1.5,2.7-2.5
		c0.6-1.1,0.9-2.2,0.9-3.4c0-1.4-0.5-2.7-1.4-4c-1.3-1.8-3.6-4-7-6.5c-3.4-2.6-5.5-4.4-6.3-5.5c-1.4-1.9-2.2-4-2.2-6.2
		c0-1.8,0.4-3.4,1.3-4.8c0.8-1.4,2-2.6,3.6-3.4c1.5-0.8,3.2-1.3,5-1.3c1.9,0,3.7,0.5,5.4,1.4c1.7,0.9,3.4,2.7,5.3,5.2l-3.3,2.5
		c-1.5-2-2.8-3.3-3.9-4c-1.1-0.6-2.3-1-3.5-1c-1.6,0-3,0.5-4,1.5c-1,1-1.6,2.2-1.6,3.7c0,0.9,0.2,1.7,0.6,2.6c0.4,0.8,1,1.7,2,2.7
		c0.5,0.5,2.3,1.9,5.2,4c3.5,2.6,5.9,4.9,7.2,6.9c1.3,2,2,4,2,6.1c0,2.9-1.1,5.5-3.4,7.7c-2.2,2.2-5,3.2-8.2,3.2
		c-2.5,0-4.7-0.7-6.7-2C308.7,39.3,306.8,37.1,305.1,34z"/>
	<path id="XMLID_2330_" class="st1" d="M337.7,1h4.1v24.4c0,2.9,0.1,4.7,0.2,5.4c0.2,1.6,0.7,2.9,1.4,4c0.7,1.1,1.9,2,3.4,2.7
		c1.5,0.7,3.1,1.1,4.6,1.1c1.3,0,2.6-0.3,3.9-0.9c1.2-0.6,2.3-1.4,3.1-2.4c0.8-1,1.4-2.2,1.8-3.7c0.3-1,0.4-3.1,0.4-6.3V1h4.1v24.4
		c0,3.6-0.4,6.5-1.1,8.8c-0.7,2.2-2.1,4.2-4.3,5.8c-2.1,1.7-4.7,2.5-7.7,2.5c-3.3,0-6.1-0.8-8.4-2.3s-3.9-3.6-4.7-6.2
		c-0.5-1.6-0.7-4.4-0.7-8.5V1z"/>
	<path id="XMLID_2328_" class="st1" d="M375,1h4.1v36.6h15.6v3.9H375V1z"/>
	<path id="XMLID_2326_" class="st1" d="M397.1,5V1h22.3v4h-9.1v36.5h-4.1V5H397.1z"/>
	<path id="XMLID_2324_" class="st1" d="M425.3,1h4.1v40.5h-4.1V1z"/>
	<path id="XMLID_2322_" class="st1" d="M439.3,41.5V1h0.9l27.1,31V1h4v40.5h-0.9l-26.8-30.7v30.7H439.3z"/>
	<path id="XMLID_2320_" class="st1" d="M520.2,7.8l-3.2,3c-2.3-2.2-4.7-3.9-7.4-5.1c-2.7-1.1-5.3-1.7-7.9-1.7
		c-3.2,0-6.2,0.8-9.1,2.3c-2.9,1.6-5.1,3.7-6.7,6.3c-1.6,2.7-2.4,5.5-2.4,8.5c0,3,0.8,5.9,2.5,8.7c1.6,2.7,3.9,4.9,6.8,6.5
		c2.9,1.6,6.1,2.4,9.5,2.4c4.2,0,7.7-1.2,10.6-3.5c2.9-2.3,4.6-5.4,5.1-9.1h-13v-3.9h17.5c0,6.3-1.9,11.2-5.6,14.9
		c-3.7,3.7-8.6,5.5-14.8,5.5c-7.5,0-13.5-2.6-17.9-7.7c-3.4-3.9-5.1-8.5-5.1-13.6c0-3.8,1-7.4,2.9-10.7s4.6-5.9,8-7.7
		c3.4-1.9,7.2-2.8,11.4-2.8c3.4,0,6.7,0.6,9.7,1.9C514.4,3.1,517.3,5.1,520.2,7.8z"/>
</g>
</svg>
